Genre:Action | Adventure | Drama
Language:English
 
http://www.imdb.com/title/tt1270798/

Source:Russian (New Source)/EPIC/IMAGINE Thanks!

Format : MPEG-4
Format profile : Base Media
Codec ID : isom
File size : 1.24 GiB
Duration : 2h 3mn
Overall bit rate : 1 443 Kbps

Video
ID : 1
Format : AVC
Format/Info : Advanced Video Codec
Format profile : High@L4.1
Format settings, CABAC : Yes
Format settings, ReFrames : 3 frames
Codec ID : avc1
Codec ID/Info : Advanced Video Coding
Duration : 2h 3mn
Bit rate mode : Variable
Bit rate : 1 251 Kbps
Maximum bit rate : 4 926 Kbps
Width : 720 pixels
Height : 336 pixels
Display aspect ratio : 2.2:1
Frame rate mode : Constant
Frame rate : 25.000 fps
Color space : YUV
Chroma subsampling : 4:2:0
Bit depth : 8 bits
Scan type : Progressive
Bits/(Pixel*Frame) : 0.207
Stream size : 1.08 GiB (86%)
Writing library : x264

Audio
ID : 2
Format : AAC
Format/Info : Advanced Audio Codec
Format version : Version 4
Format profile : LC
Format settings, SBR : No
Codec ID : 40
Duration : 2h 3mn
Bit rate mode : Variable
Bit rate : 192 Kbps
Maximum bit rate : 213 Kbps
Channel(s) : 2 channels
Channel positions : Front: L R
Sampling rate : 44.1 KHz
Stream size : 169 MiB (13%)


Plot:
In 1962, Charles Xavier starts up a school and later a team, for humans with superhuman abilities. Among them is Erik Lensherr, his best friend... and future archenemy
 
http://www.pix2links.com/images/67476877853679083671.png
 
http://www.pix2links.com/images/76583274122740914712.png
 
http://www.pix2links.com/images/99579405160364041097.png
 
http://www.pix2links.com/images/81779006042629445781.png
 
http://www.pix2links.com/images/25198594902521584000.png